<?xml version="1.0" standalone="no"?>
<!DOCTYPE svg PUBLIC "-//W3C//DTD SVG 20010904//EN"
 "http://www.w3.org/TR/2001/REC-SVG-20010904/DTD/svg10.dtd">
<svg version="1.0" xmlns="http://www.w3.org/2000/svg"
 width="300.000000pt" height="294.000000pt" viewBox="0 0 300.000000 294.000000"
 preserveAspectRatio="xMidYMid meet">
<metadata>
Created by potrace 1.10, written by Peter Selinger 2001-2011
</metadata>
<g transform="translate(0.000000,294.000000) scale(0.100000,-0.100000)"
fill="#000000" stroke="none">
<path d="M20 2894 c-19 -42 -20 -70 -20 -398 0 -201 4 -356 9 -362 15 -14 17
-92 3 -106 -17 -17 -17 -249 0 -266 9 -9 9 -15 0 -24 -9 -9 -12 -217 -12 -875
l0 -863 1500 0 1500 0 0 1470 0 1470 -1480 0 -1481 0 -19 -46z m77 17 c5 -21
61 -40 72 -24 10 14 59 43 73 42 7 0 4 -4 -7 -9 -15 -7 -10 -9 23 -9 23 -1 42
3 42 9 0 5 33 9 75 8 63 0 74 -3 64 -15 -7 -7 -9 -17 -5 -21 4 -4 15 3 24 14
16 19 28 21 150 23 100 2 132 -1 132 -10 0 -10 3 -10 12 -1 9 9 237 12 967 12
525 0 951 -3 948 -7 -4 -3 2 -16 13 -28 11 -12 24 -36 29 -53 8 -26 7 -30 -6
-25 -13 5 -14 3 -3 -17 10 -18 14 -20 21 -9 10 16 12 8 3 -15 -3 -9 -10 -13
-15 -10 -5 3 -9 -4 -9 -15 0 -24 10 -27 29 -8 11 10 12 7 5 -13 -10 -29 -10
-60 1 -153 6 -55 5 -71 -6 -78 -9 -6 -10 -12 -4 -16 13 -10 18 -270 6 -277 -6
-4 -6 -18 -1 -36 5 -16 5 -32 0 -35 -10 -6 -32 20 -30 37 4 29 -14 56 -51 79
-22 13 -47 30 -55 38 -10 9 -27 11 -52 8 -24 -4 -32 -3 -22 3 21 13 5 23 -18
11 -15 -8 -31 -7 -60 3 -41 15 -179 19 -187 6 -3 -4 6 -11 20 -14 38 -10 31
-29 -8 -22 -28 5 -33 3 -34 -15 -1 -14 3 -19 13 -15 8 3 14 -1 14 -10 0 -8 5
-12 10 -9 6 4 8 11 5 16 -4 5 -1 10 4 10 21 3 26 4 38 12 7 4 22 3 34 -3 11
-6 27 -9 35 -6 18 7 110 -11 142 -27 16 -7 28 -8 39 -1 28 17 81 -14 94 -56
14 -46 67 -94 86 -78 18 15 22 9 16 -30 -4 -23 -10 -32 -19 -28 -17 6 -17 1
-4 -24 8 -16 8 -18 -5 -14 -8 4 -15 10 -15 14 0 16 -63 85 -88 97 -15 8 -38
20 -52 28 -14 8 -37 15 -52 15 -15 0 -29 4 -32 8 -9 15 -76 1 -76 -15 0 -11 9
-14 34 -11 28 3 36 0 40 -15 3 -13 10 -17 20 -14 9 4 16 2 16 -3 0 -6 5 -10
10 -10 6 0 29 -9 53 -19 23 -10 50 -21 60 -25 9 -3 22 -17 27 -31 6 -15 14
-23 20 -20 16 10 12 -52 -7 -112 -9 -29 -20 -53 -23 -53 -4 0 -5 -11 -3 -24 3
-13 0 -27 -6 -30 -6 -4 -11 -20 -11 -36 0 -16 -5 -32 -10 -35 -6 -4 -10 -23
-9 -44 2 -20 -1 -43 -6 -51 -6 -10 -4 -12 9 -7 15 6 14 3 -4 -22 -11 -16 -16
-32 -11 -35 5 -3 7 -30 5 -58 -5 -62 -5 -46 -1 -175 1 -57 -1 -103 -6 -103 -5
0 -7 -21 -4 -47 3 -27 3 -40 1 -30 -10 32 -26 18 -20 -17 5 -25 3 -35 -8 -39
-12 -5 -14 1 -11 24 5 40 -17 33 -30 -9 -5 -18 -12 -32 -17 -32 -4 0 -16 -19
-28 -42 -46 -95 -63 -124 -85 -148 -12 -14 -26 -36 -30 -49 -4 -14 -12 -29
-17 -35 -5 -6 -32 -51 -59 -101 -28 -49 -62 -101 -75 -115 -46 -48 -104 -122
-119 -150 -8 -15 -26 -37 -41 -47 -22 -16 -25 -23 -17 -39 6 -11 7 -28 2 -39
-14 -35 -10 -51 6 -28 12 18 22 21 48 17 30 -5 31 -5 12 10 -52 40 -57 51 -25
59 21 5 82 -23 88 -41 2 -8 -3 -10 -14 -5 -13 5 -16 3 -11 -10 3 -8 1 -18 -6
-21 -7 -3 -2 -3 11 0 12 3 22 1 22 -5 0 -6 -12 -11 -26 -11 -16 0 -34 -11 -50
-29 -22 -27 -28 -29 -54 -20 -22 8 -34 7 -53 -6 -33 -21 -45 -3 -18 27 12 12
21 29 21 37 0 13 2 13 9 2 6 -10 10 -10 16 -1 4 7 0 19 -9 28 -14 15 -18 14
-43 -6 -16 -12 -43 -32 -61 -45 -17 -12 -38 -34 -45 -50 -6 -15 -21 -30 -32
-33 -10 -4 -28 -18 -38 -31 -15 -19 -25 -23 -48 -18 -39 9 -89 -39 -89 -84 l0
-31 -485 0 c-267 0 -491 3 -499 6 -10 4 -12 17 -9 45 4 27 2 39 -7 39 -8 0
-11 9 -7 27 7 36 -1 53 -25 53 -26 0 -45 51 -44 116 1 38 -3 51 -13 50 -18 -1
-31 44 -18 62 6 8 6 12 -1 12 -5 0 -15 21 -22 47 -19 71 -20 94 -5 99 13 5 16
94 3 94 -4 0 -5 20 -1 45 6 48 -8 78 -33 68 -8 -3 -14 1 -14 11 0 9 -4 16 -10
16 -5 0 -10 -7 -10 -15 0 -8 5 -15 10 -15 6 0 9 -15 7 -35 -3 -20 -1 -38 4
-41 4 -2 6 -19 3 -37 -6 -47 15 -206 33 -246 8 -19 13 -45 9 -62 -3 -18 0 -34
9 -43 8 -8 15 -30 14 -48 -1 -28 54 -203 75 -236 5 -9 -15 -12 -77 -12 l-84 0
1 73 c1 39 5 75 10 78 4 4 3 16 -4 29 -15 28 -21 141 -8 157 7 9 7 18 -2 28
-11 13 -10 14 5 8 15 -5 17 -3 11 13 -31 75 -44 197 -25 221 12 14 12 16 -2
11 -13 -5 -15 3 -16 49 0 30 -5 59 -11 65 -6 6 -6 24 -1 49 7 32 6 43 -6 56
-9 8 -14 22 -11 29 3 8 1 14 -4 14 -18 0 -20 -20 -5 -50 12 -23 13 -35 6 -44
-6 -7 -8 -15 -6 -18 3 -3 1 -16 -4 -30 -5 -14 -5 -31 0 -40 5 -8 11 -50 14
-93 3 -43 8 -81 10 -85 3 -4 5 -42 6 -84 1 -42 4 -78 8 -80 5 -4 6 -54 2 -159
-1 -15 -8 -30 -17 -34 -19 -7 -36 16 -28 37 7 17 7 16 0 85 -11 98 -14 202 -6
214 11 18 0 61 -16 61 -20 0 -36 -37 -28 -63 18 -52 11 -80 -12 -50 -12 16
-13 16 -14 2 0 -9 10 -23 22 -32 13 -8 19 -19 15 -23 -4 -5 -12 -2 -18 6 -6
10 -7 -7 -4 -50 5 -57 3 -63 -9 -47 -9 12 -16 14 -21 7 -3 -5 -11 -8 -16 -4
-5 3 -16 0 -24 -6 -28 -23 -17 10 12 36 23 21 25 27 13 34 -12 8 -12 10 3 10
17 0 17 1 2 16 -9 9 -14 23 -11 31 3 8 -2 22 -11 31 -15 16 -15 17 0 20 10 2
15 7 12 12 -3 5 -13 6 -22 3 -9 -4 -21 1 -29 12 -20 28 -17 36 11 29 19 -5 25
-2 25 11 0 12 -6 15 -23 10 l-22 -6 21 18 c12 11 20 30 20 46 -1 15 2 27 6 27
4 0 8 -9 8 -20 0 -11 5 -20 10 -20 6 0 10 -20 10 -44 0 -26 6 -48 14 -56 13
-10 14 -4 11 42 -2 29 -4 54 -5 56 0 1 1 3 2 5 6 9 -26 47 -40 47 -15 0 -15 2
-2 10 13 9 12 13 -9 30 -19 17 -21 23 -11 35 7 9 8 15 2 15 -5 0 -15 14 -21
30 -13 39 -9 38 24 -5 21 -29 24 -39 15 -50 -10 -12 -10 -15 1 -15 8 0 27 -14
44 -31 25 -26 27 -33 17 -49 -10 -16 -9 -21 8 -30 30 -16 37 -6 33 52 -5 82
-4 148 2 158 3 5 -1 26 -10 47 -9 20 -18 58 -20 83 -2 25 -8 65 -14 90 -13 60
-17 143 -7 159 5 7 3 18 -2 23 -12 12 -4 70 11 79 14 10 -1 29 -18 22 -17 -6
-21 12 -5 22 6 4 7 11 4 17 -4 6 6 21 22 34 25 21 27 26 14 36 -8 7 -25 33
-37 58 -13 25 -23 37 -23 28 0 -9 4 -19 8 -22 5 -3 8 -19 7 -36 -1 -17 2 -33
7 -36 13 -8 9 -24 -6 -24 -20 0 -31 -19 -17 -33 13 -13 -3 -37 -25 -37 -46 0
-151 176 -179 300 -2 8 -11 41 -19 73 -9 32 -14 62 -11 67 3 5 1 19 -4 32 -22
60 -22 96 -1 116 l21 19 -21 6 c-11 3 -20 2 -21 -1 0 -4 -3 -18 -5 -32 -3 -14
-5 -39 -5 -57 1 -18 -4 -35 -9 -38 -6 -4 -10 27 -10 83 0 73 3 91 16 96 11 4
18 -1 21 -14 3 -11 11 -20 19 -20 24 0 24 18 -1 34 -14 9 -23 21 -20 26 7 12
67 41 73 36 7 -8 -9 -27 -18 -21 -15 9 -18 -34 -3 -54 8 -12 12 -25 9 -30 -3
-5 1 -11 9 -15 8 -3 15 -1 15 5 0 6 8 5 21 -2 17 -8 32 -8 63 1 23 7 45 13 51
15 14 2 35 -21 35 -39 0 -9 4 -16 9 -16 5 0 9 13 9 29 -1 22 -5 28 -17 24 -9
-4 -5 6 12 24 15 16 24 32 20 36 -3 4 1 7 10 7 10 0 17 6 17 13 0 16 -36 47
-55 47 -8 0 -15 7 -15 15 0 19 11 19 36 0 30 -23 52 -19 50 10 -1 17 -7 25
-20 25 -12 0 -16 5 -12 15 3 8 4 15 3 15 -1 0 -17 -4 -35 -9 -33 -10 -44 3
-21 26 7 7 5 22 -6 51 -18 45 -59 70 -127 79 -35 5 -42 2 -77 -36 -67 -72 -71
-65 -71 119 0 159 0 160 23 160 18 0 19 2 7 10 -13 9 -13 10 0 11 8 1 20 1 27
0 7 -1 9 7 6 19 -4 15 -9 18 -23 10 -36 -19 -40 -12 -40 76 0 64 4 89 16 101
8 9 14 26 12 38 -1 12 2 33 9 46 6 13 14 36 17 52 7 31 26 36 33 8z m62 10 c9
-6 10 -11 2 -15 -13 -8 -31 1 -31 15 0 11 11 11 29 0z m2702 -14 c-14 -16 -17
-27 -11 -37 5 -8 10 -12 11 -7 2 9 6 25 9 35 3 8 12 -31 30 -127 12 -62 10
-79 -17 -161 -3 -8 -6 -36 -8 -62 -1 -36 -8 -54 -29 -74 -14 -15 -29 -39 -33
-53 -3 -14 -12 -35 -19 -46 -14 -19 -14 -19 -15 0 -4 71 1 266 6 275 3 5 1 10
-4 10 -6 0 -11 19 -11 43 0 24 -5 48 -12 55 -9 9 -9 12 1 12 14 0 9 25 -15 74
-8 16 -14 35 -14 43 0 7 -7 13 -16 13 -13 0 -14 3 -4 15 9 11 33 14 92 14 l80
-1 -21 -21z m129 -1437 l0 -1460 -582 0 c-581 1 -583 1 -559 20 12 11 27 18
31 15 5 -3 15 3 22 12 7 10 23 19 36 21 12 2 34 15 47 28 28 28 111 68 124 60
4 -3 16 3 26 14 14 15 15 23 6 34 -19 23 10 36 79 37 27 0 41 8 61 31 25 30
25 33 11 59 -16 26 -15 28 28 85 24 33 63 82 87 110 24 28 43 57 43 64 0 6 19
48 41 92 31 59 39 82 30 91 -21 21 -11 55 40 123 27 37 57 83 65 101 20 48 39
94 52 128 21 56 40 327 29 405 -2 14 5 40 16 58 13 23 17 43 13 63 -3 17 -1
39 5 50 5 11 11 39 12 62 2 23 6 48 11 55 4 6 5 16 2 21 -7 11 23 101 40 122
8 8 15 32 16 52 2 20 7 37 12 37 6 0 5 5 -1 11 -7 7 -8 20 -2 37 5 15 15 54
23 87 24 100 62 217 91 280 36 80 45 203 21 295 -10 36 -20 74 -23 85 -18 70
-17 75 16 75 l31 0 0 -1460z m-70 1390 c0 -13 -1 -13 -10 0 -5 8 -10 22 -10
30 0 13 1 13 10 0 5 -8 10 -22 10 -30z m15 -347 c-15 -27 -16 -27 -10 -3 4 14
10 39 13 55 l7 30 3 -27 c2 -15 -4 -40 -13 -55z m-75 -219 c-16 -49 -21 -38
-8 16 6 24 13 39 16 32 2 -6 -2 -28 -8 -48z m-32 9 c2 -40 -26 -109 -39 -96
-11 12 -15 76 -5 92 5 8 3 17 -5 22 -10 7 -5 8 14 5 15 -3 27 0 27 5 0 5 2 9
3 9 2 0 4 -16 5 -37z m-2664 -58 c-3 -8 1 -22 11 -31 20 -20 33 -11 15 11 -7
9 -11 18 -8 20 10 10 34 -6 51 -35 17 -27 17 -29 0 -39 -16 -9 -16 -12 -3 -20
8 -6 11 -13 7 -18 -5 -4 -12 -1 -17 6 -7 12 -15 10 -45 -7 -43 -26 -46 -27
-39 -7 3 8 -6 26 -21 40 -20 21 -23 30 -15 40 7 8 9 19 5 25 -10 17 5 30 35
30 22 0 28 -4 24 -15z m-125 -71 c-6 -8 -15 -14 -20 -14 -14 0 -11 28 4 33 20
7 29 -4 16 -19z m2750 -24 c0 -9 -4 -8 -9 5 -5 11 -9 27 -9 35 0 9 4 8 9 -5 5
-11 9 -27 9 -35z m-2686 -10 c3 -11 -1 -23 -8 -28 -14 -7 -15 -10 -15 -37 0
-8 -7 -15 -15 -15 -17 0 -21 35 -5 45 6 3 10 17 10 31 0 29 25 33 33 4z m124
-44 c-4 -9 0 -12 11 -9 13 3 21 -7 31 -41 7 -25 18 -47 24 -49 7 -2 8 -8 4
-13 -4 -5 -12 -2 -17 6 -7 11 -11 12 -24 0 -9 -7 -26 -13 -39 -14 -12 -1 -21
-7 -19 -14 1 -7 -8 -12 -22 -12 -27 0 -56 28 -39 38 6 4 13 17 17 30 4 12 13
22 20 22 8 0 19 7 26 15 10 12 9 15 -4 15 -9 0 -25 -5 -35 -12 -10 -6 -26 -8
-36 -4 -14 5 -15 9 -5 21 8 9 21 13 31 10 11 -4 26 0 35 9 19 20 48 21 41 2z
m2543 -141 c-6 -15 -13 -26 -16 -23 -2 3 0 18 6 33 6 15 13 26 16 23 2 -3 0
-18 -6 -33z m-22 -76 c-6 -19 -13 -40 -14 -47 -2 -7 -8 -10 -14 -7 -7 4 -7 13
0 26 6 10 8 19 5 19 -3 0 2 11 11 25 22 33 26 27 12 -16z m-29 -146 c0 -25 -1
-25 -8 -8 -5 11 -7 23 -4 28 8 14 13 7 12 -20z m-2675 -68 c2 -17 9 -43 15
-58 14 -35 14 -77 1 -77 -6 0 -6 -9 -1 -22 10 -26 5 -68 -9 -82 -13 -13 -13
-26 0 -26 6 0 10 7 10 16 0 10 6 14 15 10 11 -4 15 1 15 19 0 14 4 25 9 25 10
0 27 -39 23 -53 -1 -4 27 -35 62 -68 35 -34 62 -68 59 -74 -2 -7 0 -16 6 -20
6 -3 11 1 11 9 0 9 7 16 15 16 12 0 15 -15 16 -72 2 -146 14 -242 39 -328 21
-71 20 -152 -1 -159 -8 -2 -11 0 -7 4 4 4 -11 30 -33 57 -22 28 -51 76 -66
107 -14 31 -33 60 -40 64 -10 6 -11 12 -4 21 6 7 9 37 7 65 -5 60 -24 86 -83
115 -95 46 -88 36 -91 131 -2 58 1 85 8 80 5 -3 10 1 10 10 0 9 -4 13 -10 10
-10 -6 -6 67 5 85 10 17 13 60 4 60 -4 0 -10 -6 -12 -12 -3 -7 -6 15 -6 50 -1
40 3 62 10 62 8 0 8 5 -1 15 -7 9 -10 25 -6 41 9 33 24 21 30 -21z m2666 -19
c0 -8 -4 -18 -10 -21 -5 -3 -10 3 -10 14 0 12 5 21 10 21 6 0 10 -6 10 -14z
m-20 -55 c0 -3 -8 -11 -18 -18 -17 -10 -18 -8 -14 12 2 15 9 22 18 18 8 -3 14
-8 14 -12z m-20 -159 c17 -15 19 -27 14 -65 -5 -34 -11 -47 -23 -46 -10 0 -11
3 -4 6 10 3 10 9 0 24 -10 16 -9 21 3 29 10 6 11 10 3 10 -7 0 -13 5 -13 11 0
5 6 7 13 3 6 -4 4 2 -5 13 -31 34 -21 46 12 15z m3 -136 c3 -8 0 -20 -8 -26
-10 -8 -13 -5 -11 15 1 28 11 33 19 11z m-19 -155 c-9 -34 -21 -64 -27 -68 -6
-4 -8 1 -4 13 32 97 41 123 45 120 2 -2 -4 -32 -14 -65z m-2618 -26 c4 -8 12
-15 19 -15 8 0 17 -5 21 -12 5 -8 2 -9 -9 -5 -9 3 -23 0 -31 -8 -19 -19 -26
-19 -26 0 0 8 6 15 13 16 10 0 10 2 0 6 -16 6 -17 33 -3 33 6 0 13 -7 16 -15z
m98 -28 c6 -9 7 -19 3 -24 -8 -7 -56 44 -57 61 0 12 41 -17 54 -37z m-51 -42
c4 -9 -1 -11 -14 -8 -10 3 -19 11 -19 19 0 16 26 8 33 -11z m67 -5 c0 -5 -5
-21 -12 -34 -9 -21 -8 -29 4 -43 8 -10 15 -31 16 -47 2 -22 -2 -27 -14 -22 -9
3 -17 6 -19 6 -2 0 -1 8 2 18 2 10 -2 24 -10 30 -13 11 -12 18 2 57 14 41 31
60 31 35z m2456 -15 c-9 -9 -16 -22 -16 -29 0 -14 -33 -56 -44 -56 -13 0 -5
31 9 36 8 4 15 13 15 21 0 8 10 23 23 33 26 22 36 18 13 -5z m-2512 -34 c-29
-26 -51 -31 -64 -15 -10 12 -7 14 19 14 20 0 35 7 43 20 7 11 15 15 17 9 2 -6
-5 -18 -15 -28z m18 -97 c13 -17 28 -32 33 -33 42 -6 65 -36 49 -63 -4 -7 -3
-10 1 -5 5 4 16 -5 26 -20 13 -20 15 -30 7 -40 -8 -10 -6 -18 7 -33 10 -11 13
-20 7 -20 -7 0 -8 -10 -3 -28 8 -27 -14 -85 -49 -126 -13 -17 -6 -36 15 -36 8
0 16 -4 19 -9 3 -5 -2 -8 -12 -7 -10 0 -18 -7 -20 -20 -2 -17 -9 -20 -35 -17
l-32 4 28 -25 c16 -14 25 -31 22 -37 -5 -7 -16 -2 -32 13 l-24 23 3 -27 c5
-36 10 -40 55 -41 37 -2 38 -3 39 -38 1 -51 10 -70 29 -63 11 5 15 0 15 -17 0
-14 -4 -19 -8 -13 -4 6 -15 13 -24 17 -9 3 -19 16 -21 29 -2 13 -3 9 -1 -8 2
-23 -4 -38 -21 -54 -15 -14 -25 -18 -30 -11 -3 6 -20 10 -38 10 -18 0 -41 1
-51 3 -36 6 -27 -20 11 -32 42 -14 63 -28 63 -41 0 -14 -46 -10 -90 7 -45 18
-54 50 -20 72 12 7 18 17 15 21 -2 5 6 16 20 25 23 15 25 15 25 0 0 -16 1 -16
18 -1 18 17 50 8 38 -11 -3 -5 1 -15 8 -21 19 -16 30 2 22 34 -3 13 -2 27 4
30 14 9 12 45 -2 45 -7 0 -25 -14 -40 -32 l-27 -33 -23 22 c-17 17 -19 26 -11
34 9 9 16 9 25 2 9 -8 17 -7 26 3 10 11 7 16 -14 27 -17 9 -23 17 -15 21 6 4
11 21 11 37 0 22 7 32 25 41 14 6 25 20 25 30 0 19 10 41 47 98 21 34 25 72 9
98 -4 7 -8 32 -9 56 -1 24 -6 42 -10 39 -5 -3 -6 -19 -3 -36 6 -29 6 -30 -13
-13 -16 15 -18 21 -8 37 9 15 8 21 -7 32 -11 8 -16 19 -12 25 5 8 0 12 -13 12
-16 0 -21 6 -21 24 0 14 -4 28 -10 31 -6 4 -10 -5 -10 -21 l0 -27 -25 23 c-22
21 -29 22 -45 12 -18 -11 -20 -9 -20 23 0 41 3 42 55 14 40 -21 40 -21 21 -1
-10 12 -31 24 -47 27 -16 4 -29 11 -29 15 0 18 80 -26 102 -56z m2418 24 c0
-19 -18 -44 -25 -36 -4 3 0 15 7 27 15 24 18 26 18 9z m-2330 -28 c0 -5 -7
-10 -15 -10 -8 0 -15 5 -15 10 0 6 7 10 15 10 8 0 15 -4 15 -10z m-110 -72 c0
-13 -35 -9 -56 7 -16 12 -17 16 -5 24 14 9 60 -15 61 -31z m2380 7 c0 -8 -4
-15 -10 -15 -5 0 -10 7 -10 15 0 8 5 15 10 15 6 0 10 -7 10 -15z m-34 -40 c-1
-36 -12 -46 -22 -21 -5 12 11 56 20 56 1 0 2 -16 2 -35z m-2392 -7 c-4 -6 -10
-5 -15 3 -14 22 -10 33 6 19 8 -7 12 -17 9 -22z m2428 0 c-6 -6 -15 -8 -19 -4
-4 4 -1 11 7 16 19 12 27 3 12 -12z m-2337 -2 c8 -7 11 -16 8 -20 -12 -12 -39
-6 -56 14 -16 19 -16 20 9 20 14 0 32 -6 39 -14z m-53 -23 c29 -26 21 -40 -24
-46 -51 -7 -58 -2 -35 21 15 15 19 15 27 2 5 -8 13 -11 17 -6 4 5 2 11 -4 13
-13 5 -18 33 -6 33 3 0 15 -7 25 -17z m2382 -23 c-22 -9 -29 -6 -20 9 4 6 14
7 23 4 15 -6 14 -7 -3 -13z m-2297 -26 c25 -23 26 -27 11 -35 -10 -5 -15 -16
-12 -24 4 -8 1 -15 -6 -15 -6 0 -10 10 -8 23 2 14 -4 26 -16 32 -23 12 -30 45
-11 45 8 0 26 -12 42 -26z m2253 17 c0 -5 -6 -14 -14 -20 -12 -10 -13 -8 -9 8
5 21 23 30 23 12z m-2308 -48 c20 -18 25 -87 8 -98 -5 -3 -10 -15 -10 -26 0
-11 -18 -39 -40 -63 -35 -37 -40 -49 -40 -90 0 -25 -4 -46 -10 -46 -6 0 -10
59 -10 156 0 138 2 158 18 170 24 18 62 17 84 -3z m2328 -23 c0 -36 -70 -130
-97 -130 -12 0 -17 -13 -14 -32 0 -5 -4 -8 -10 -8 -5 0 -7 -4 -4 -10 3 -5 2
-10 -4 -10 -5 0 -12 -9 -16 -19 -3 -10 -14 -21 -25 -24 -15 -4 -18 -12 -15
-43 3 -38 3 -38 -15 -16 -10 12 -23 22 -29 22 -15 0 -14 22 3 56 8 15 12 32 9
38 -3 6 6 0 21 -13 25 -24 27 -24 44 -8 15 15 15 19 2 27 -12 8 -10 14 13 38
15 15 27 32 27 38 0 5 11 22 24 39 20 25 26 28 40 16 14 -12 16 -10 16 18 0
21 5 31 15 31 8 0 15 -4 15 -10z m-106 -54 c-3 -9 -10 -16 -15 -16 -6 0 -5 9
1 21 13 24 24 20 14 -5z m-2081 -164 c-2 -12 3 -22 10 -23 6 0 1 -4 -11 -10
-32 -12 -42 -4 -42 32 0 26 3 30 23 27 16 -2 21 -9 20 -26z m-203 -107 c-10
-11 -23 -31 -29 -45 -10 -25 -10 -24 -10 7 -1 21 7 41 22 55 27 29 44 12 17
-17z m204 30 c-6 -16 -24 -21 -24 -7 0 11 11 22 21 22 5 0 6 -7 3 -15z m90
-82 c3 -8 3 -20 -1 -26 -4 -7 0 -8 11 -4 9 4 15 3 13 -1 -3 -4 -1 -32 4 -62 5
-30 12 -77 15 -105 3 -27 8 -53 11 -57 2 -5 -51 -8 -118 -8 -107 0 -120 2
-109 15 10 12 10 15 -3 15 -8 0 -23 3 -32 6 -9 4 -15 3 -14 -2 4 -23 -3 -34
-21 -34 -11 0 -20 5 -20 10 0 6 -16 24 -35 41 -42 37 -50 71 -10 45 13 -9 34
-16 45 -16 11 0 32 -7 46 -16 23 -15 24 -15 18 1 -6 15 -4 16 17 3 13 -7 28
-17 32 -23 5 -6 7 -4 4 5 -2 8 7 23 20 34 18 14 23 25 19 42 -3 12 -2 26 4 29
5 3 10 1 10 -6 0 -8 4 -8 15 1 9 7 14 19 11 26 -3 7 2 18 9 24 16 13 10 34 -6
25 -5 -4 -9 -2 -9 4 0 15 18 23 25 11 5 -8 11 -7 21 1 20 17 17 28 -6 22 -21
-6 -28 12 -7 20 17 6 35 -2 41 -20z m1896 17 c8 -5 11 -12 7 -16 -4 -4 -15 0
-24 9 -18 18 -8 23 17 7z m-1970 -20 c0 -13 -11 -13 -30 0 -12 8 -11 10 8 10
12 0 22 -4 22 -10z m1815 -81 c-4 -5 -12 -9 -19 -9 -7 0 -25 -9 -40 -21 -14
-11 -26 -17 -26 -12 1 14 24 38 40 41 8 2 19 7 24 12 11 11 28 2 21 -11z
m-1865 -17 c0 -5 -9 -17 -20 -27 -15 -13 -17 -21 -9 -31 12 -15 4 -34 -14 -34
-7 0 -21 8 -32 16 -19 15 -18 16 15 9 29 -6 33 -5 23 6 -18 18 -16 39 5 55 20
16 32 18 32 6z m1720 -34 c0 -10 -7 -18 -16 -18 -9 0 -12 -5 -8 -12 5 -8 2 -9
-9 -5 -9 3 -19 2 -22 -3 -10 -17 -25 -11 -25 10 0 24 37 63 50 55 6 -4 10 0
10 7 0 20 20 -13 20 -34z m40 27 c0 -8 -4 -15 -10 -15 -5 0 -10 7 -10 15 0 8
5 15 10 15 6 0 10 -7 10 -15z m-1320 -14 c0 -4 -9 -7 -20 -8 -19 -2 -26 8 -14
20 7 7 34 -2 34 -12z m-220 -5 c0 -7 -7 -19 -15 -26 -16 -13 -20 -3 -9 24 8
20 24 21 24 2z m13 -128 c-9 -17 -34 -7 -43 18 -13 34 -13 44 4 44 7 0 17 10
21 23 6 18 9 12 15 -28 4 -27 5 -53 3 -57z m1291 40 c-13 -16 -14 -19 -2 -10
11 9 18 10 23 2 9 -14 -1 -40 -15 -40 -6 0 -8 6 -4 13 6 9 4 9 -7 -1 -21 -19
-25 -14 -21 26 5 39 20 58 36 42 6 -6 2 -18 -10 -32z m106 6 c0 -7 -27 -34
-35 -34 -3 0 -1 9 5 20 10 18 30 28 30 14z m-1804 -39 c18 -14 18 -14 -8 -15
-18 0 -28 5 -28 15 0 19 11 19 36 0z"/>
<path d="M490 2907 c0 -8 12 -20 28 -28 15 -8 30 -18 34 -24 4 -5 10 -6 14 -2
11 10 -16 37 -37 37 -11 0 -19 7 -19 15 0 8 -4 15 -10 15 -5 0 -10 -6 -10 -13z"/>
<path d="M1280 2870 c-7 -16 -17 -30 -23 -30 -6 0 -8 -3 -5 -6 10 -9 50 16 45
29 -2 7 3 17 12 24 15 11 15 12 0 13 -9 0 -22 -13 -29 -30z"/>
<path d="M295 2880 c-4 -6 7 -10 25 -10 18 0 29 4 25 10 -3 6 -15 10 -25 10
-10 0 -22 -4 -25 -10z"/>
<path d="M193 2840 c-26 -20 -29 -30 -10 -30 21 1 52 29 41 39 -5 6 -18 3 -31
-9z"/>
<path d="M285 2846 c-17 -12 -16 -14 18 -18 34 -4 36 -3 20 14 -19 21 -15 21
-38 4z"/>
<path d="M700 2825 c-20 -24 -6 -28 15 -5 10 11 13 20 8 20 -6 0 -16 -7 -23
-15z"/>
<path d="M1001 2826 c-8 -9 -11 -19 -7 -23 9 -9 29 13 24 27 -2 8 -8 7 -17 -4z"/>
<path d="M405 2810 c-19 -7 -19 -8 -2 -15 10 -4 23 -3 29 3 14 14 -3 21 -27
12z"/>
<path d="M1221 2789 c-13 -11 -21 -22 -18 -25 3 -4 20 5 37 20 17 14 26 26 18
26 -7 -1 -24 -10 -37 -21z"/>
<path d="M382 2770 c12 -19 28 -27 28 -14 0 7 -27 34 -34 34 -4 0 -1 -9 6 -20z"/>
<path d="M43 2742 c1 -14 8 -22 20 -22 10 0 17 5 15 11 -2 6 -7 10 -12 9 -5
-1 -12 4 -17 12 -6 9 -8 6 -6 -10z"/>
<path d="M450 2734 c0 -14 4 -23 10 -19 6 3 10 15 10 26 0 10 -4 19 -10 19 -5
0 -10 -12 -10 -26z"/>
<path d="M660 2745 c0 -8 5 -15 10 -15 6 0 10 7 10 15 0 8 -4 15 -10 15 -5 0
-10 -7 -10 -15z"/>
<path d="M310 2740 c0 -5 6 -10 14 -10 8 0 18 5 21 10 3 6 -3 10 -14 10 -12 0
-21 -4 -21 -10z"/>
<path d="M148 2732 c-10 -2 -18 -8 -18 -13 0 -13 27 -11 35 2 9 13 4 16 -17
11z"/>
<path d="M1074 2733 c10 -11 36 -12 36 -2 0 5 -10 9 -22 9 -12 0 -18 -3 -14
-7z"/>
<path d="M260 2723 c0 -6 -10 -13 -22 -15 -12 -2 -23 -9 -26 -17 -3 -8 1 -12
8 -9 7 2 29 -11 48 -29 19 -18 39 -33 43 -33 15 0 10 19 -8 29 -38 22 -55 40
-48 51 6 9 10 9 16 -1 4 -7 11 -10 15 -6 4 4 0 15 -9 24 -10 10 -17 12 -17 6z"/>
<path d="M1054 2689 c-15 -17 -16 -22 -4 -29 15 -9 39 14 40 38 0 18 -14 15
-36 -9z"/>
<path d="M43 2685 c2 -5 19 -10 37 -10 18 0 35 5 37 10 2 6 -14 10 -37 10 -23
0 -39 -4 -37 -10z"/>
<path d="M446 2682 c-3 -6 -1 -14 5 -17 15 -10 25 3 12 16 -7 7 -13 7 -17 1z"/>
<path d="M942 2634 c-13 -20 -21 -42 -18 -50 3 -8 -1 -17 -9 -20 -8 -4 -15
-17 -15 -30 0 -13 -9 -40 -20 -59 -21 -38 -19 -55 7 -55 11 0 14 6 9 25 -4 14
-3 25 2 25 8 0 34 54 37 80 1 8 14 39 28 68 29 60 15 71 -21 16z"/>
<path d="M30 2646 c0 -2 7 -9 15 -16 12 -10 15 -10 15 4 0 9 -7 16 -15 16 -8
0 -15 -2 -15 -4z"/>
<path d="M442 2639 c2 -7 10 -15 17 -17 8 -3 12 1 9 9 -2 7 -10 15 -17 17 -8
3 -12 -1 -9 -9z"/>
<path d="M587 2626 c-3 -8 -3 -17 0 -20 9 -9 34 15 27 25 -8 13 -21 11 -27 -5z"/>
<path d="M1026 2624 c-17 -12 -17 -14 -4 -14 9 0 20 5 23 11 11 17 2 18 -19 3z"/>
<path d="M1275 2630 c-4 -7 -25 -8 -53 -4 -33 4 -44 3 -37 -4 6 -6 22 -12 37
-14 16 -2 34 -13 42 -23 12 -16 27 -20 85 -21 39 0 76 -5 82 -11 7 -7 2 -9
-18 -5 -25 5 -27 4 -14 -11 7 -10 24 -17 37 -17 12 0 26 -4 29 -10 3 -6 -1 -7
-9 -4 -9 3 -16 1 -16 -5 0 -6 14 -14 32 -19 17 -4 36 -16 42 -27 17 -29 36
-48 43 -41 3 3 16 -9 27 -27 19 -29 21 -30 24 -10 2 12 -4 36 -14 54 -14 28
-18 30 -26 16 -11 -20 -28 -13 -28 10 0 9 -7 25 -17 35 -21 23 -3 24 49 1 22
-10 38 -24 38 -34 0 -9 7 -19 15 -23 18 -7 20 5 3 22 -17 17 -3 15 38 -7 38
-21 84 -69 84 -88 0 -7 4 -13 8 -13 5 0 8 12 7 28 -1 15 2 32 7 39 5 6 5 14 0
17 -6 3 -13 -2 -16 -11 -5 -13 -11 -10 -26 18 -11 19 -22 42 -26 52 -3 9 -15
17 -25 17 -11 0 -19 5 -19 11 0 5 -5 7 -10 4 -6 -4 -17 -2 -25 5 -7 6 -19 10
-27 9 -7 -2 -33 1 -57 5 -41 8 -43 10 -26 22 20 15 16 17 -27 14 -15 -1 -37 4
-50 11 -13 7 -55 12 -96 11 -43 0 -70 3 -67 9 4 5 13 9 21 9 8 0 14 5 14 10 0
13 -27 13 -35 0z m386 -133 c-1 -12 -15 -9 -19 4 -3 6 1 10 8 8 6 -3 11 -8 11
-12z"/>
<path d="M112 2618 c-15 -15 -15 -35 0 -44 7 -5 9 0 6 14 -3 12 -1 23 6 25 6
2 8 7 5 10 -3 4 -11 1 -17 -5z"/>
<path d="M518 2595 c5 -28 22 -24 22 6 0 10 -6 19 -14 19 -9 0 -12 -8 -8 -25z"/>
<path d="M446 2595 c-4 -12 -1 -16 11 -13 18 3 21 20 5 26 -5 1 -12 -4 -16
-13z"/>
<path d="M1138 2589 c-19 -11 -92 -129 -84 -136 3 -3 11 -1 18 3 22 14 40 17
117 17 42 -1 76 -5 80 -12 4 -6 30 -9 61 -8 46 2 63 -2 99 -25 41 -26 71 -35
71 -23 0 2 -15 20 -32 38 -25 25 -49 37 -103 50 -73 17 -167 30 -222 30 -18 0
-33 4 -33 9 0 4 7 8 15 8 8 0 15 4 15 8 0 13 63 32 88 26 12 -4 22 -2 22 4 0
19 -84 28 -112 11z"/>
<path d="M1000 2559 c-7 -17 -19 -37 -27 -45 -8 -8 -12 -22 -8 -34 8 -25 25
-26 25 -2 0 10 6 26 14 37 17 26 29 75 17 75 -5 0 -14 -14 -21 -31z"/>
<path d="M175 2541 c-7 -12 26 -31 53 -31 12 0 19 6 18 15 -3 21 -16 31 -16
12 0 -21 -19 -22 -26 -2 -7 17 -20 20 -29 6z"/>
<path d="M450 2541 c0 -10 36 -21 44 -14 3 3 3 10 0 14 -7 12 -44 12 -44 0z"/>
<path d="M570 2543 c-19 -8 -30 -23 -30 -46 0 -27 21 -16 42 21 18 32 16 35
-12 25z"/>
<path d="M100 2508 c0 -3 15 -10 33 -13 17 -4 35 -12 39 -18 4 -6 11 -8 15 -3
4 5 2 11 -4 13 -7 3 -13 10 -13 16 0 7 -15 12 -35 12 -19 0 -35 -3 -35 -7z"/>
<path d="M473 2503 c-36 -7 -41 -23 -30 -94 9 -61 8 -69 -11 -96 -19 -27 -19
-32 -7 -56 12 -23 12 -27 -1 -27 -8 0 -14 -5 -14 -11 0 -6 -7 -17 -15 -25 -8
-9 -15 -26 -15 -39 0 -18 4 -23 15 -19 18 7 20 24 3 24 -7 0 -3 7 9 15 12 8
28 12 36 9 18 -7 29 53 14 77 -8 13 -6 24 7 44 10 14 19 36 21 48 3 11 10 24
17 28 7 4 9 11 5 16 -5 4 -12 1 -17 -7 -13 -21 -19 -10 -22 46 -3 41 0 49 13
46 9 -1 19 4 23 13 3 8 2 14 -2 14 -4 -1 -17 -4 -29 -6z"/>
<path d="M480 2440 c0 -11 4 -20 9 -20 11 0 22 26 14 34 -12 12 -23 5 -23 -14z"/>
<path d="M939 2434 c-10 -13 -10 -17 2 -25 22 -14 27 -11 21 16 -5 29 -6 30
-23 9z"/>
<path d="M290 2393 c0 -17 19 -35 29 -29 8 5 7 11 -3 22 -16 15 -26 18 -26 7z"/>
<path d="M350 2386 c0 -8 5 -18 10 -21 6 -3 10 3 10 14 0 12 -4 21 -10 21 -5
0 -10 -6 -10 -14z"/>
<path d="M80 2380 c0 -4 11 -10 25 -12 15 -3 25 -1 25 6 0 6 -11 12 -25 12
-14 1 -25 -2 -25 -6z"/>
<path d="M820 2356 c0 -20 27 -28 34 -10 9 23 8 24 -14 24 -11 0 -20 -6 -20
-14z"/>
<path d="M140 2340 c0 -5 6 -10 14 -10 7 0 19 -7 26 -15 17 -21 24 -12 10 14
-11 21 -50 30 -50 11z"/>
<path d="M1294 2335 c26 -19 42 -19 26 0 -7 8 -20 15 -29 15 -13 -1 -13 -3 3
-15z"/>
<path d="M476 2301 c-10 -11 -13 -21 -7 -25 10 -7 14 -3 24 27 8 22 4 22 -17
-2z"/>
<path d="M825 2310 c-7 -12 2 -30 16 -30 5 0 9 9 9 20 0 21 -15 27 -25 10z"/>
<path d="M897 2284 c6 -16 25 -14 30 2 2 5 -6 10 -16 11 -14 1 -18 -3 -14 -13z"/>
<path d="M1116 2291 c-4 -6 0 -14 11 -17 34 -11 48 -21 51 -40 3 -15 1 -17 -9
-6 -20 19 -37 14 -41 -10 -2 -15 -9 -22 -19 -20 -9 1 -29 -5 -45 -13 -16 -8
-33 -15 -37 -15 -15 0 -67 -44 -67 -57 0 -7 -7 -13 -15 -13 -8 0 -15 -4 -15
-10 0 -10 30 -14 83 -10 18 1 27 -3 27 -13 0 -8 15 -22 33 -30 17 -9 41 -24
52 -35 30 -27 125 -52 125 -31 0 5 -11 9 -24 9 -26 0 -96 64 -96 88 0 7 -4 11
-10 7 -11 -7 -50 16 -50 29 0 4 9 6 20 3 10 -3 18 0 17 5 -1 5 6 15 16 21 14
10 20 9 27 -3 8 -12 12 -49 9 -76 -1 -10 42 -43 65 -50 11 -3 32 -18 45 -32
15 -17 21 -21 17 -9 -6 20 -3 21 44 6 19 -6 67 -12 105 -14 39 -2 84 -7 100
-11 27 -7 29 -6 16 9 -7 10 -19 17 -26 17 -15 0 -40 28 -33 36 3 2 19 -7 36
-21 16 -14 34 -25 40 -25 5 0 12 -7 16 -15 3 -8 10 -15 16 -15 25 0 4 33 -67
107 -43 45 -96 99 -117 122 -21 23 -50 44 -62 47 -13 4 -24 10 -24 14 0 4 -12
7 -27 8 -69 1 -89 5 -105 20 -26 22 -22 28 17 28 19 0 35 -3 35 -6 0 -4 17 -7
37 -8 79 -3 139 -31 199 -94 31 -32 59 -57 61 -54 3 3 -6 18 -20 33 -15 15
-41 45 -59 65 -23 25 -52 43 -96 57 -75 25 -245 40 -256 22z m121 -115 c-7
-21 -37 -19 -37 2 0 15 5 19 20 15 12 -3 19 -11 17 -17z m137 -25 c11 -12 14
-21 7 -26 -6 -3 -11 -15 -11 -26 0 -27 -42 -89 -60 -88 -8 0 -28 6 -45 14
l-30 13 38 1 c21 1 36 5 33 10 -4 5 6 23 20 41 l27 31 -23 24 -23 25 25 0 c14
0 33 -9 42 -19z m-154 -16 c0 -8 6 -15 13 -15 17 0 53 -38 44 -46 -9 -9 -39 4
-33 14 3 5 -5 8 -17 8 -17 -1 -23 6 -25 27 -2 15 1 27 7 27 6 0 11 -7 11 -15z
m78 -4 c3 -8 -1 -12 -9 -9 -7 2 -15 10 -17 17 -3 8 1 12 9 9 7 -2 15 -10 17
-17z m139 -58 c4 -10 15 -24 25 -31 14 -10 16 -18 8 -32 -7 -13 -6 -21 5 -30
9 -7 13 -15 10 -18 -3 -3 -14 3 -25 13 -14 13 -29 16 -55 12 -42 -7 -46 9 -11
42 15 14 22 30 19 42 -7 24 15 25 24 2z"/>
<path d="M619 2268 c0 -2 -2 -16 -4 -31 -3 -23 -1 -26 10 -17 7 6 11 20 8 30
-5 17 -11 26 -14 18z"/>
<path d="M811 2252 c-17 -31 -13 -40 5 -14 9 13 14 26 11 29 -3 2 -10 -4 -16
-15z"/>
<path d="M531 2184 c-25 -42 -26 -50 -5 -58 13 -5 15 -2 11 14 -3 12 0 20 8
20 7 0 15 14 17 30 6 40 -5 38 -31 -6z"/>
<path d="M2260 2200 c0 -5 7 -10 15 -10 8 0 15 5 15 10 0 6 -7 10 -15 10 -8 0
-15 -4 -15 -10z"/>
<path d="M2380 2210 c-1 -3 -3 -16 -6 -30 -3 -21 -2 -22 7 -7 6 10 8 23 5 30
-2 7 -5 10 -6 7z"/>
<path d="M589 2183 c0 -10 -2 -40 -3 -66 -1 -34 -7 -52 -18 -58 -10 -5 -15
-16 -12 -23 3 -7 -1 -20 -9 -28 -8 -8 -18 -33 -22 -56 -4 -23 -11 -44 -16 -48
-5 -3 -9 -24 -9 -48 0 -23 -5 -47 -10 -52 -7 -7 -5 -16 4 -29 12 -17 12 -22
-2 -44 -16 -23 -16 -24 5 -13 26 14 39 48 24 66 -6 7 -8 16 -4 19 3 4 7 28 9
54 3 61 2 59 16 45 7 -7 19 -12 27 -12 12 0 12 2 -1 18 -19 21 -20 79 -1 87 9
3 12 12 8 24 -4 12 1 26 13 38 14 13 19 35 21 81 1 37 -3 62 -9 62 -5 0 -10
-8 -11 -17z"/>
<path d="M410 2105 c-7 -9 -14 -44 -16 -80 -2 -35 -10 -77 -18 -93 -9 -17 -17
-44 -18 -61 -2 -23 -5 -28 -15 -19 -21 17 -28 0 -10 -20 16 -18 46 -26 48 -13
0 3 2 15 3 26 7 57 18 95 27 95 6 0 9 15 7 33 -2 24 1 32 13 31 20 -2 13 35
-7 43 -8 3 -14 12 -14 20 0 9 6 13 15 9 11 -4 14 1 13 19 -3 29 -10 31 -28 10z"/>
<path d="M2092 2086 c-12 -16 -22 -35 -22 -42 0 -8 -9 -14 -20 -14 -18 0 -20
-7 -20 -57 0 -32 -1 -66 -2 -75 -1 -17 15 -79 32 -124 4 -11 6 -32 3 -46 -3
-14 0 -29 6 -32 6 -4 11 -20 11 -36 0 -16 4 -31 8 -34 5 -3 7 -19 4 -36 -2
-18 0 -30 7 -30 6 0 11 -11 11 -25 0 -14 4 -25 8 -25 11 0 6 151 -7 219 -6 29
-11 55 -11 56 0 1 11 0 25 -3 14 -2 25 -7 25 -11 0 -3 21 -7 46 -9 26 -1 52
-6 58 -9 6 -4 21 -6 34 -4 12 1 22 -2 22 -8 0 -6 -4 -11 -10 -11 -5 0 -10 -4
-10 -10 0 -5 15 -10 33 -10 18 0 38 -5 44 -11 13 -13 84 -14 109 -1 10 5 36
12 56 16 27 5 36 11 32 21 -4 10 -14 13 -31 9 -25 -7 -25 -7 -8 20 12 18 15
36 11 60 -6 31 -5 34 14 29 26 -7 35 -22 21 -36 -16 -16 -14 -27 3 -21 11 4
13 0 9 -15 -8 -31 31 -28 45 4 9 19 9 23 -2 19 -8 -3 -17 -1 -21 5 -3 6 1 14
9 17 18 7 18 54 0 54 -7 0 -22 16 -33 36 -12 20 -25 34 -28 30 -3 -3 -12 3
-19 13 -16 23 -138 62 -212 68 -45 4 -63 -1 -127 -32 -62 -29 -73 -38 -63 -49
13 -14 38 -11 38 5 0 5 7 9 15 9 9 0 18 7 21 15 4 8 19 15 34 15 16 0 31 4 35
9 12 21 208 -21 239 -50 22 -20 -6 -20 -49 1 -55 27 -125 24 -212 -9 -29 -11
-53 -16 -53 -13 0 4 -6 0 -13 -8 -7 -8 -24 -21 -39 -29 -15 -8 -37 -23 -49
-34 l-21 -20 6 49 c9 69 10 106 2 129 -5 14 0 27 14 43 12 12 20 30 18 39 -3
14 -8 12 -26 -11z m330 -175 c-12 -10 -20 -29 -20 -48 -1 -38 -26 -80 -54 -89
-26 -8 -108 24 -108 42 0 12 4 12 25 -2 24 -16 27 -16 45 1 11 10 20 24 20 30
0 7 7 18 15 25 11 9 12 17 5 30 -15 28 -14 29 41 28 48 -1 50 -2 31 -17z
m-114 -20 c3 -8 -1 -12 -9 -9 -7 2 -15 10 -17 17 -3 8 1 12 9 9 7 -2 15 -10
17 -17z m252 -9 c-25 -4 -35 2 -26 17 5 7 13 7 27 -2 20 -12 20 -12 -1 -15z
m-273 -51 c-14 -5 -49 38 -41 51 4 6 17 -3 29 -18 14 -17 19 -31 12 -33z m183
27 c39 -64 20 -107 -55 -122 -38 -8 -72 11 -38 20 30 8 63 63 63 103 0 39 5
39 30 -1z m-273 -42 l4 -38 -32 18 c-41 24 -45 38 -17 52 33 16 41 10 45 -32z"/>
<path d="M496 2055 c-4 -11 -12 -29 -18 -39 -22 -41 -58 -185 -63 -249 -1 -21
-8 -49 -15 -63 -14 -25 -9 -41 10 -29 6 4 9 13 6 21 -3 8 0 14 5 14 6 0 9 9 6
20 -3 11 -2 20 3 20 4 0 10 9 13 20 3 11 1 20 -4 20 -5 0 -5 7 0 18 10 18 24
67 26 92 1 8 7 28 13 43 7 16 12 34 12 41 0 6 5 17 11 23 6 6 9 23 7 39 -4 26
-5 27 -12 9z"/>
<path d="M861 2051 c-10 -6 -10 -10 -1 -16 13 -8 24 -1 19 14 -3 6 -10 7 -18
2z"/>
<path d="M850 2000 c0 -11 7 -20 15 -20 17 0 18 2 9 24 -9 23 -24 20 -24 -4z"/>
<path d="M85 1900 c-3 -5 -3 -15 1 -21 6 -11 23 6 24 24 0 10 -18 9 -25 -3z"/>
<path d="M143 1866 c-1 -36 2 -45 18 -49 15 -4 19 -1 17 11 -1 9 1 23 6 30 7
12 -18 52 -33 52 -3 0 -7 -20 -8 -44z"/>
<path d="M1570 1892 c0 -6 -11 -13 -25 -16 -37 -10 -30 -23 10 -18 34 4 47 23
25 37 -5 3 -10 2 -10 -3z"/>
<path d="M607 1876 c-3 -8 1 -20 9 -27 10 -8 12 -15 4 -23 -5 -5 -10 -20 -10
-33 0 -13 -4 -23 -9 -23 -14 0 -18 -32 -8 -63 5 -15 6 -34 3 -43 -5 -14 -9
-14 -23 -3 -15 13 -15 12 -5 -8 7 -12 16 -23 21 -25 12 -4 24 -48 13 -48 -5 0
-8 -18 -7 -39 2 -30 -1 -38 -11 -34 -8 3 -14 0 -14 -6 0 -6 6 -11 14 -11 8 0
17 -8 19 -17 3 -10 6 -2 7 17 3 51 7 84 9 90 1 3 4 43 5 90 2 47 8 99 14 116
7 22 6 42 -2 68 -12 38 -20 45 -29 22z"/>
<path d="M244 1866 c-3 -9 -12 -16 -20 -16 -17 0 -18 -17 -1 -23 10 -4 10 -7
0 -18 -21 -22 -15 -29 14 -14 23 12 28 12 40 -3 13 -15 13 -15 5 3 -5 11 -7
26 -5 33 3 6 0 12 -6 12 -6 0 -11 -5 -11 -11 0 -5 -4 -7 -10 -4 -15 9 -12 25
5 25 17 0 20 16 5 25 -6 3 -13 -1 -16 -9z"/>
<path d="M1166 1862 c-9 -15 1 -19 64 -27 30 -4 61 -12 67 -17 7 -6 21 -7 30
-3 10 4 27 9 38 10 64 6 114 18 109 26 -7 12 -81 11 -105 -1 -11 -6 -24 -8
-31 -4 -6 4 -34 8 -62 9 -28 1 -63 5 -77 9 -16 5 -29 3 -33 -2z"/>
<path d="M107 1823 c-4 -3 -7 -13 -7 -21 0 -12 3 -12 15 -2 8 7 15 16 15 21 0
11 -14 12 -23 2z"/>
<path d="M160 1777 c0 -13 4 -27 9 -32 5 -6 19 -28 31 -49 17 -31 19 -41 8
-47 -7 -5 -8 -9 -2 -9 6 0 21 -20 33 -45 12 -25 27 -45 32 -45 12 0 12 17 -1
25 -16 10 -11 25 9 25 13 0 20 -10 25 -31 7 -36 28 -30 22 6 -6 34 -14 45 -43
56 -13 5 -21 14 -18 19 3 6 -3 23 -14 39 -12 16 -21 35 -21 43 0 12 -55 68
-66 68 -2 0 -4 -10 -4 -23z"/>
<path d="M547 1783 c-11 -10 -8 -43 3 -43 6 0 10 11 10 25 0 26 -2 29 -13 18z"/>
<path d="M330 1755 c0 -9 5 -15 11 -13 6 2 11 8 11 13 0 5 -5 11 -11 13 -6 2
-11 -4 -11 -13z"/>
<path d="M2160 1743 c0 -9 40 -36 45 -31 2 2 -8 11 -21 21 -13 10 -24 14 -24
10z"/>
<path d="M2613 1743 c-18 -7 -16 -23 2 -23 8 0 15 7 15 15 0 8 -1 15 -2 14 -2
0 -9 -3 -15 -6z"/>
<path d="M1360 1720 c0 -5 7 -10 16 -10 8 0 13 -4 10 -8 -3 -5 1 -9 9 -9 19 0
19 5 1 23 -17 16 -36 19 -36 4z"/>
<path d="M310 1711 c0 -5 -7 -11 -15 -13 -10 -2 -12 -8 -6 -17 8 -12 12 -12
25 2 18 18 21 37 6 37 -5 0 -10 -4 -10 -9z"/>
<path d="M2570 1660 c-8 -5 -11 -12 -7 -16 4 -4 13 -2 19 4 15 15 7 24 -12 12z"/>
<path d="M521 1649 c-1 -25 37 -55 51 -41 9 9 8 12 -4 12 -8 0 -23 10 -31 23
-12 16 -16 18 -16 6z"/>
<path d="M160 1625 c0 -24 41 -75 61 -75 17 0 8 23 -16 42 -14 11 -25 26 -25
33 0 8 -4 17 -10 20 -6 4 -10 -5 -10 -20z"/>
<path d="M2266 1621 c-7 -11 40 -28 50 -18 4 3 17 2 30 -3 19 -7 24 -6 24 5 0
8 -8 15 -19 15 -10 0 -32 3 -49 6 -17 3 -32 1 -36 -5z"/>
<path d="M717 1476 c-6 -16 2 -28 14 -20 12 7 11 34 0 34 -5 0 -11 -6 -14 -14z"/>
<path d="M450 1468 c0 -7 -9 -24 -20 -38 -24 -30 -25 -41 -5 -33 16 5 45 53
45 73 0 15 -20 13 -20 -2z"/>
<path d="M573 1448 c-6 -7 -14 -31 -18 -53 -4 -22 -12 -43 -18 -47 -7 -4 -7
-11 2 -22 14 -16 36 -12 25 5 -3 5 1 20 8 32 13 21 25 97 15 97 -3 0 -9 -6
-14 -12z"/>
<path d="M281 1412 c-14 -26 -7 -42 10 -25 6 6 9 19 7 29 -3 17 -5 17 -17 -4z"/>
<path d="M416 1323 c-4 -9 0 -23 9 -32 14 -15 15 -13 13 17 -2 35 -12 42 -22
15z"/>
<path d="M588 1276 c-5 -24 7 -46 24 -46 13 0 9 47 -6 59 -11 9 -15 6 -18 -13z"/>
<path d="M347 1273 c-11 -10 -8 -53 3 -53 6 0 10 14 10 30 0 31 -2 35 -13 23z"/>
<path d="M1702 1268 c-65 -10 -98 -26 -84 -40 16 -16 94 -16 129 0 34 16 32
16 99 -33 28 -20 25 6 -5 35 -39 39 -72 48 -139 38z"/>
<path d="M1539 1233 c27 -50 60 -71 106 -71 39 0 44 2 34 14 -6 8 -26 14 -44
14 -18 0 -38 7 -45 15 -7 8 -19 15 -26 15 -8 0 -14 7 -14 15 0 8 -5 15 -10 15
-7 0 -7 -6 -1 -17z"/>
<path d="M429 1212 c4 -14 12 -27 18 -29 15 -5 4 45 -12 51 -9 3 -11 -2 -6
-22z"/>
<path d="M604 1165 c-3 -25 -11 -45 -16 -45 -6 0 -8 14 -5 35 7 43 -11 47 -19
5 -4 -16 -11 -30 -16 -30 -5 0 -7 -4 -3 -9 3 -5 1 -12 -5 -16 -17 -11 0 -26
22 -19 15 5 18 3 12 -7 -15 -24 -20 -133 -14 -280 2 -36 0 -71 -4 -77 -8 -14
1 -52 13 -52 7 0 11 33 15 135 1 22 -2 46 -7 53 -6 7 -4 18 4 29 9 10 13 34
11 69 -2 31 2 62 10 76 7 12 13 39 13 58 1 19 4 54 9 78 5 27 4 42 -3 42 -5 0
-13 -20 -17 -45z"/>
<path d="M737 1173 c-4 -6 -3 -22 1 -35 5 -12 7 -30 4 -38 -3 -10 -1 -12 6 -5
15 14 17 36 5 64 -6 15 -12 20 -16 14z"/>
<path d="M490 1135 c0 -8 5 -15 10 -15 6 0 10 7 10 15 0 8 -4 15 -10 15 -5 0
-10 -7 -10 -15z"/>
<path d="M1892 1093 c3 -14 12 -17 48 -15 25 2 52 10 60 18 12 12 6 14 -49 14
-54 0 -62 -2 -59 -17z"/>
<path d="M700 1013 c0 -5 5 -15 10 -23 8 -12 10 -11 10 8 0 12 -4 22 -10 22
-5 0 -10 -3 -10 -7z"/>
<path d="M528 1000 c-12 -28 -15 -70 -6 -70 13 0 20 25 16 57 -3 18 -6 23 -10
13z"/>
<path d="M399 998 c-8 -19 -7 -98 1 -98 5 0 10 23 10 50 0 28 -2 50 -5 50 -3
0 -5 -1 -6 -2z"/>
<path d="M1130 951 c0 -5 6 -11 13 -14 9 -3 9 -7 -1 -20 -12 -14 -10 -17 15
-23 15 -4 39 -17 53 -29 28 -25 67 -38 120 -41 60 -3 114 -16 142 -36 16 -11
29 -15 33 -8 3 5 1 10 -6 10 -7 0 -10 3 -7 6 3 3 41 -9 84 -25 90 -35 95 -36
88 -17 -3 8 -29 26 -57 39 -68 33 -80 37 -141 43 -62 6 -76 10 -76 24 0 6 22
9 55 7 30 -1 55 1 55 4 0 4 -17 13 -37 22 -37 16 -37 16 -8 14 24 -2 31 2 33
21 4 23 -12 30 -24 11 -3 -6 -15 -8 -26 -6 -28 8 -48 -2 -41 -19 3 -8 0 -14
-6 -14 -6 0 -11 7 -11 15 0 8 -9 15 -20 15 -11 0 -20 -4 -20 -9 0 -13 -42 -22
-55 -11 -6 5 -18 3 -29 -6 -14 -10 -23 -11 -33 -3 -7 6 -10 15 -7 20 3 5 -1 9
-10 9 -8 0 -16 4 -18 8 -4 13 -58 24 -58 13z"/>
<path d="M470 928 c0 -16 5 -28 10 -28 13 0 13 20 0 40 -8 12 -10 9 -10 -12z"/>
<path d="M1503 937 c-8 -14 4 -19 47 -21 23 0 36 -2 30 -4 -20 -7 -10 -22 16
-22 21 0 24 4 19 20 -4 11 -2 20 4 20 6 0 11 3 11 8 0 10 -120 10 -127 -1z"/>
<path d="M1635 909 c-4 -6 -5 -12 -2 -15 7 -7 37 7 37 17 0 13 -27 11 -35 -2z"/>
<path d="M1744 912 c3 -6 -4 -18 -16 -26 -16 -11 -19 -19 -11 -27 7 -7 15 -6
26 5 19 20 37 21 37 3 0 -10 15 -13 52 -13 39 1 61 -4 85 -21 19 -13 38 -23
43 -23 6 0 10 -4 10 -10 0 -5 7 -7 15 -4 26 10 17 23 -25 34 -22 6 -40 17 -40
24 0 15 -16 21 -95 41 -27 6 -59 16 -69 20 -13 6 -17 5 -12 -3z"/>
<path d="M508 888 c-7 -13 -11 -29 -10 -35 2 -7 -3 -13 -9 -13 -7 0 -5 -6 6
-13 10 -8 15 -19 11 -25 -11 -18 10 -14 25 4 7 9 9 18 3 22 -5 4 -9 24 -8 45
1 43 -1 45 -18 15z"/>
<path d="M1642 822 c2 -7 6 -13 11 -13 4 1 16 1 27 1 11 0 20 7 20 15 0 11 -9
15 -30 13 -20 -1 -30 -7 -28 -16z"/>
<path d="M1693 783 c-20 -7 -15 -23 6 -23 11 0 22 -4 26 -10 6 -10 35 -2 35
10 0 4 -8 10 -17 14 -10 3 -22 8 -28 10 -5 2 -16 2 -22 -1z"/>
<path d="M1960 755 c7 -8 17 -12 22 -9 6 4 5 10 -3 15 -22 14 -33 10 -19 -6z"/>
<path d="M1810 754 c0 -18 16 -29 45 -32 17 -2 48 -12 71 -23 46 -22 54 -23
54 -8 0 20 -32 43 -74 50 -22 4 -53 11 -68 15 -16 3 -28 2 -28 -2z"/>
<path d="M1530 725 c0 -8 5 -15 10 -15 6 0 10 7 10 15 0 8 -4 15 -10 15 -5 0
-10 -7 -10 -15z"/>
<path d="M2006 727 c-18 -13 -18 -15 5 -35 29 -28 31 -28 52 8 14 23 15 29 4
24 -8 -3 -18 -1 -22 5 -8 14 -17 14 -39 -2z"/>
<path d="M640 637 c0 -9 -6 -17 -12 -20 -7 -2 -10 -7 -6 -11 8 -10 49 16 45
28 -6 17 -27 18 -27 3z"/>
<path d="M580 620 c0 -11 5 -20 11 -20 5 0 7 5 4 10 -3 6 -1 10 4 10 6 0 11 5
11 10 0 6 -7 10 -15 10 -8 0 -15 -9 -15 -20z"/>
<path d="M1650 549 c0 -5 14 -9 32 -9 36 0 31 12 -7 16 -14 1 -25 -2 -25 -7z"/>
<path d="M573 505 c1 -33 2 -35 14 -19 15 21 14 45 -4 51 -7 3 -11 -9 -10 -32z"/>
<path d="M790 536 c0 -2 7 -9 15 -16 12 -10 15 -10 15 4 0 9 -7 16 -15 16 -8
0 -15 -2 -15 -4z"/>
<path d="M792 489 c2 -7 10 -15 17 -17 8 -3 12 1 9 9 -2 7 -10 15 -17 17 -8 3
-12 -1 -9 -9z"/>
<path d="M795 401 c-6 -11 9 -23 19 -14 9 9 7 23 -3 23 -6 0 -12 -4 -16 -9z"/>
<path d="M2076 275 c-3 -8 -3 -22 0 -30 5 -12 10 -10 24 8 13 16 15 24 7 29
-18 11 -24 10 -31 -7z"/>
<path d="M516 185 c4 -8 10 -15 15 -15 5 0 9 7 9 15 0 8 -7 15 -15 15 -9 0
-12 -6 -9 -15z"/>
<path d="M1045 161 c-4 -7 5 -11 24 -11 22 0 31 -5 31 -16 0 -9 6 -14 13 -11
6 2 25 -2 41 -10 33 -17 121 -41 189 -52 65 -11 57 8 -12 25 -28 8 -61 18 -71
24 -10 5 -31 10 -47 10 -16 0 -37 6 -48 13 -11 8 -33 17 -50 20 -16 3 -37 8
-46 12 -10 3 -20 2 -24 -4z"/>
<path d="M545 119 c4 -13 14 -31 21 -39 13 -13 13 -11 3 18 -13 38 -35 57 -24
21z"/>
<path d="M740 115 c0 -8 5 -15 10 -15 6 0 10 7 10 15 0 8 -4 15 -10 15 -5 0
-10 -7 -10 -15z"/>
<path d="M735 71 c-6 -19 2 -51 14 -51 3 0 6 16 6 35 0 38 -10 46 -20 16z"/>
<path d="M1537 74 c-4 -4 -35 -8 -69 -8 -37 -1 -63 -6 -65 -13 -3 -8 17 -10
68 -7 76 4 83 6 77 24 -2 6 -7 8 -11 4z"/>
<path d="M1610 57 l-25 -11 29 -4 c16 -2 33 1 38 6 15 15 -14 21 -42 9z"/>
<path d="M2840 2825 c0 -8 7 -15 15 -15 9 0 12 6 9 15 -4 8 -10 15 -15 15 -5
0 -9 -7 -9 -15z"/>
<path d="M174 1309 c-3 -6 0 -18 9 -26 13 -13 15 -12 15 11 0 27 -12 34 -24
15z"/>
<path d="M165 1254 c11 -8 19 -22 17 -31 -3 -13 -1 -13 12 -2 13 12 13 16 -6
32 -11 9 -25 17 -32 17 -6 0 -2 -7 9 -16z"/>
<path d="M250 1172 c0 -18 5 -32 10 -32 6 0 8 12 6 26 -7 39 -16 42 -16 6z"/>
<path d="M180 1182 c0 -5 3 -12 7 -16 4 -4 8 -13 8 -19 1 -28 17 -77 26 -77 5
0 9 23 9 51 0 27 -4 48 -9 45 -5 -3 -11 1 -15 9 -6 16 -26 21 -26 7z"/>
<path d="M200 1045 c0 -8 5 -15 10 -15 6 0 10 7 10 15 0 8 -4 15 -10 15 -5 0
-10 -7 -10 -15z"/>
<path d="M210 962 c0 -5 7 -17 16 -28 14 -17 15 -17 10 -1 -3 10 -6 23 -6 28
0 5 -4 9 -10 9 -5 0 -10 -4 -10 -8z"/>
<path d="M261 863 c11 -34 58 -93 59 -75 0 6 -9 21 -21 33 -11 11 -18 26 -16
34 3 7 0 18 -6 24 -19 19 -26 12 -16 -16z"/>
</g>
</svg>
